<!DOCTYPE svg PUBLIC "-//W3C//DTD SVG 1.1//EN" "http://www.w3.org/Graphics/SVG/1.1/DTD/svg11.dtd">
<!-- Uploaded to: SVG Repo, www.svgrepo.com, Transformed by: SVG Repo Mixer Tools -->
<svg fill="#bababa" version="1.1" id="Capa_1" xmlns="http://www.w3.org/2000/svg" xmlns:xlink="http://www.w3.org/1999/xlink" width="179px" height="179px" viewBox="-30.96 -30.96 319.94 319.94" xml:space="preserve" stroke="#bababa" stroke-width="0.0025802" transform="matrix(1, 0, 0, 1, 0, 0)">
<g id="SVGRepo_bgCarrier" stroke-width="0"/>
<g id="SVGRepo_tracerCarrier" stroke-linecap="round" stroke-linejoin="round"/>
<g id="SVGRepo_iconCarrier"> <g> <g> <path d="M212.743,142.447h-22.677V73.459c0-2.974-2.404-5.375-5.376-5.375H73.88c-0.016,0-0.039,0-0.06,0 c-0.37,0.005-0.699,0.145-1.048,0.225c-0.338,0.077-0.698,0.082-1.005,0.215c-0.329,0.139-0.586,0.391-0.877,0.591 c-0.272,0.194-0.585,0.333-0.822,0.57c-0.235,0.242-0.378,0.559-0.569,0.844c-0.194,0.29-0.436,0.544-0.578,0.873 c-0.134,0.325-0.144,0.704-0.213,1.057c-0.065,0.339-0.204,0.646-0.204,1.005c0,0.011,0.005,0.022,0.005,0.032 s-0.005,0.021-0.005,0.034l0.779,68.917H45.209c-2.968,0-5.375,2.404-5.375,5.375v104.822c0,2.971,2.407,5.375,5.375,5.375 h167.534c2.966,0,5.376-2.404,5.376-5.375V147.822C218.119,144.851,215.709,142.447,212.743,142.447z M129.426,100.337 c17.29,0,31.354,14.068,31.354,31.36c0,17.291-14.068,31.355-31.354,31.355c-17.29,0-31.355-14.059-31.355-31.355 C98.07,114.405,112.136,100.337,129.426,100.337z M69.408,153.198l0.026,2.542l-2.087-2.542H69.408z M50.589,247.268v-94.07h2.833 l45.094,54.815l-40.263,39.255H50.589z M73.656,247.268l42.722-41.659h26.161l44.861,41.659H73.656z M207.367,247.268h-4.157 l-45.28-42.049l45.597-52.021h3.841V247.268z"/> <path d="M129.426,152.296c11.359,0,20.604-9.24,20.604-20.604c0-11.366-9.255-20.61-20.604-20.61 c-11.36,0-20.605,9.244-20.605,20.61C108.821,143.056,118.061,152.296,129.426,152.296z"/> <path d="M129.426,43.896c2.966,0,5.375-2.405,5.375-5.375V5.375c0-2.971-2.409-5.375-5.375-5.375c-2.97,0-5.376,2.403-5.376,5.375 V38.52C124.05,41.486,126.456,43.896,129.426,43.896z"/> <path d="M155.41,43.896c1.374,0,2.75-0.528,3.8-1.576l19.485-19.485c2.101-2.102,2.101-5.499,0-7.601 c-2.109-2.102-5.501-2.102-7.6,0l-19.487,19.485c-2.108,2.104-2.108,5.499,0,7.602C152.647,43.362,154.023,43.896,155.41,43.896z"/> <path d="M180.89,58.446c1.051,1.048,2.425,1.575,3.801,1.575c1.382,0,2.756-0.527,3.8-1.575l13.571-13.573 c2.104-2.102,2.104-5.499,0-7.601c-2.101-2.102-5.497-2.102-7.602,0l-13.57,13.573C178.791,52.947,178.791,56.339,180.89,58.446z"/> <path d="M222.603,77.943h-21.502c-2.971,0-5.375,2.403-5.375,5.375c0,2.971,2.404,5.375,5.375,5.375h21.502 c2.966,0,5.374-2.405,5.374-5.375C227.977,80.346,225.568,77.943,222.603,77.943z"/> <path d="M98.811,42.556c1.049,1.047,2.426,1.575,3.801,1.575c1.378,0,2.758-0.527,3.8-1.575c2.108-2.103,2.108-5.498,0-7.602 L86.926,15.47c-2.102-2.102-5.499-2.102-7.601,0c-2.1,2.102-2.1,5.499,0,7.601L98.811,42.556z"/> <path d="M69.521,58.683c1.047,1.047,2.423,1.575,3.8,1.575c1.375,0,2.75-0.527,3.801-1.575c2.1-2.102,2.1-5.499,0-7.601 L63.542,37.509c-2.1-2.102-5.499-2.102-7.599,0c-2.102,2.102-2.102,5.499,0,7.601L69.521,58.683z"/> <path d="M62.295,83.549c0-2.972-2.407-5.375-5.375-5.375H35.418c-2.966,0-5.375,2.404-5.375,5.375c0,2.974,2.41,5.375,5.375,5.375 H56.92C59.888,88.924,62.295,86.528,62.295,83.549z"/> </g> </g> </g>
</svg>